<?xml version="1.0" encoding="utf-8"?>
<!-- Generator: Adobe Illustrator 15.1.0, SVG Export Plug-In . SVG Version: 6.00 Build 0)  -->
<!DOCTYPE svg PUBLIC "-//W3C//DTD SVG 1.1//EN" "http://www.w3.org/Graphics/SVG/1.1/DTD/svg11.dtd">
<svg version="1.1" id="Layer_1" xmlns="http://www.w3.org/2000/svg" xmlns:xlink="http://www.w3.org/1999/xlink" x="0px" y="0px"
	 width="70px" height="172px" viewBox="0 0 70 172" enable-background="new 0 0 70 172" xml:space="preserve">
<rect fill="none" width="70" height="77"/>
<rect y="77" fill="none" width="55" height="95"/>
<g opacity="0.5">
	<path fill="#FFFFFF" d="M37.073,74.705c0.148-0.138,0.305-0.277,0.462-0.416C37.105,74.307,36.888,74.426,37.073,74.705z"/>
	<path fill="#FFFFFF" d="M64.731,56.518C64.859,56.791,64.731,56.488,64.731,56.518L64.731,56.518z"/>
	<path fill="#FFFFFF" d="M61.104,53.521c2.857-2.266-0.155,0.604-0.865-1.573c0.005-1.308-0.217-2.347-0.434-3.622
		c-0.091-2.068-4.946-4.025-4.84-1.551c-0.328,2.475,3.068,0.119,1.21-0.43c5.119-1.373-1.229,13.229-1.311,13.396
		c-3.384,6.946-6.131-4.12-10.529-0.123c-0.405,1.725,0.788,1.725,1.21,0.26c4.984,0.324,4.435,5.875,4.665,9.482
		c0.461-1.67,4.303-12.172,7.521-7.931c-0.028,0.023,1.295-6.909,1.295-7.327c3.325-1.162,0.77,2.561,0.519,3.018
		c0.516,0,1.226-0.293,1.729-0.26c2.284-1.611,3.342,2.393,1.9,2.674c0.879-3.183-4.312-0.185-0.603,0.775
		c1.903,0,2.93-2.115,2.159-3.793C64.731,55.525,60.232,54.213,61.104,53.521z"/>
	<path fill="#FFFFFF" d="M66.679,50.99c0,0.004,0,0.006,0,0.012C66.679,50.986,66.679,50.982,66.679,50.99z"/>
	<path fill="#FFFFFF" d="M64.755,48.672c-0.084-1.867,1.2-3.6,1.2-5.516c0-2.466,0.294-5.996-0.097-8.277
		c2.273-3.354,3.591-4.38,2.021-8.781c-0.71-1.978-4.11-4.83-4.116-6.822c-0.623-0.056,1.314-4.953-2.498-3.104
		c-0.458,0.697-3.453,1.78-3.453,2.242c2.536-0.012,5.783,3.249,6.312,5.604c2.098,4.65-5.114,2.06-7.002,3.705
		c7.255,2.976,3.334,7.632,6.66,12.414c-0.121,0.51,1.117,4.033-0.262,3.793c-0.692,0.46-3.029-1.107-3.288-1.207
		c-2.815-1.072-3.807,0.768-5.873,0.777c1.762,0,5.948,0.061,6.337,2.756c-1.129-0.549,5.982,11.771,5.982,4.833
		c0-0.012,0-0.083,0-0.101C66.679,50.087,64.562,49.395,64.755,48.672z M64.604,24.766c-0.074-0.313-0.202-0.625-0.293-0.9
		C64.401,24.14,64.529,24.452,64.604,24.766c0.037,0.158,0.058,0.313,0.056,0.467C64.661,25.079,64.641,24.923,64.604,24.766z"/>
	<path fill="#FFFFFF" d="M67.325,51.002c-0.002,0.028-0.002,0.058-0.006,0.089C67.319,51.099,67.323,51.081,67.325,51.002z"/>
	<path fill="#FFFFFF" d="M44.593,30.312c-0.047,0.041-0.092,0.081-0.139,0.12C44.382,30.495,44.617,30.312,44.593,30.312z"/>
	<path fill="#FFFFFF" d="M36.903,74.705c-0.521,0.43-1.04,0.86-1.557,1.295C35.33,76.002,37.484,74.784,36.903,74.705z"/>
	<path fill="#FFFFFF" d="M68.967,36.948c0.052-1.196-1.157-0.495-1.642-0.43c0,0.403,1.253,3.109,1.295,3.104
		C68.831,38.889,69.387,37.735,68.967,36.948z"/>
	<path fill="#FFFFFF" d="M36.903,74.705C37.004,74.721,36.903,74.705,36.903,74.705L36.903,74.705z"/>
	<path fill="#FFFFFF" d="M68.967,36.948C69.199,37.384,68.973,36.798,68.967,36.948L68.967,36.948z"/>
	<path fill="#FFFFFF" d="M46.15,61.949c-1.56-0.24-0.388,2.674-1.037,2.756c-0.811,4.014-4.62,6.938-7.578,9.584
		c1.015-0.037,3.203,0.506,3.912,0.865c0.27-1.073,1.507-4.765,1.677-4.932c1.171-5.295,6.297-2.306,3.402-1.323
		c1.599-0.468,2.042-1.409,2.042-2.987c0,0.115-0.027,0,0,0C47.484,65.912,46.763,62.764,46.15,61.949z"/>
	<path fill="#FFFFFF" d="M49.003,23.585c-0.635-7.449-12.036-0.711-10.547,2.33c0.521-0.186,11.484-5.402,7.436-1.292
		c0,6.968-6.803,1.629-7.693,3.274c0,4.965,3.918,7.854,0.416,12.571c-2.863,3.857-2.435,4.395-0.848,8.464
		c3.996,2.692,8.664-3.323,9.767-6.466c-0.277-1.451,0.202-2.739-0.693-4.225c-1.327-3.003-6.803-3.977-2.386-7.811
		c0.019-0.018,0.062-0.055,0.139-0.12C47.894,30.312,51.046,23.585,49.003,23.585z"/>
	<path fill="#FFFFFF" d="M40.187,52.293C40.396,53.004,40.19,52.173,40.187,52.293L40.187,52.293z"/>
	<path fill="#FFFFFF" d="M37.767,59.619c-0.111-2.355,3.084-5.074,2.42-7.326c0.031-1.101-2.394-0.783-2.94-0.691
		c-2.315,0.014-1.218-1.528-2.246-2.451c-1.029,0.923,0.069,2.465-2.247,2.451c-0.546-0.092-2.973-0.409-2.939,0.691
		c-0.665,2.252,2.531,4.971,2.419,7.326c1.542-1.159,2.347-1.822,2.768,0.617C35.421,57.797,36.226,58.46,37.767,59.619z"/>
	<path fill="#FFFFFF" d="M32.465,74.289c0.157,0.139,0.309,0.278,0.461,0.416C33.112,74.426,32.894,74.307,32.465,74.289z"/>
	<path fill="#FFFFFF" d="M5.268,56.518C5.268,56.488,5.14,56.791,5.268,56.518L5.268,56.518z"/>
	<path fill="#FFFFFF" d="M24.455,59.879c0.421,1.465,1.614,1.465,1.21-0.26c-4.398-3.997-7.146,7.069-10.529,0.123
		c-0.082-0.167-6.429-14.77-1.311-13.396c-1.858,0.549,1.537,2.904,1.21,0.43c0.106-2.475-4.75-0.518-4.841,1.551
		c-0.216,1.275-0.438,2.314-0.433,3.622c-0.712,2.177-3.723-0.692-0.869,1.573c0.876,0.691-3.625,2.004-3.625,2.996
		c-0.77,1.678,0.257,3.793,2.16,3.793c3.71-0.96-1.483-3.958-0.603-0.775c-1.442-0.281-0.385-4.285,1.9-2.674
		c0.504-0.033,1.213,0.26,1.729,0.26c-0.251-0.457-2.81-4.18,0.518-3.018c0,0.418,1.321,7.351,1.295,7.327
		c3.22-4.241,7.062,6.261,7.521,7.931C20.02,65.754,19.472,60.203,24.455,59.879z"/>
	<path fill="#FFFFFF" d="M34.05,17.897c0.312-1.346-1.721-2.09-1.729-1.808c0,3.222-3.144,6.59,2.311,7.71
		c0.122,0.025,0.245,0.041,0.368,0.055c0.122-0.014,0.245-0.029,0.368-0.055c5.454-1.12,2.312-4.488,2.312-7.71
		c-0.009-0.283-2.042,0.461-1.731,1.808c0.006,0.409,0.347,1.222,0.347,2.071c0.405,1.018-0.438,1.438-1.295,1.486
		c-0.859-0.049-1.702-0.469-1.296-1.486C33.704,19.119,34.046,18.306,34.05,17.897z"/>
	<path fill="#FFFFFF" d="M1.679,51.002c0-0.006,0-0.008,0-0.012C1.679,50.982,1.679,50.986,1.679,51.002z"/>
	<path fill="#FFFFFF" d="M9.481,46.258c0.389-2.695,4.646-2.756,6.406-2.756c-2.064-0.01-3.18-1.85-5.994-0.777
		c-0.259,0.1-2.659,1.667-3.354,1.207c-1.377,0.24-0.17-3.283-0.291-3.793c3.325-4.782-0.613-9.438,6.639-12.414
		c-1.881-1.645-9.104,0.945-7.007-3.705c0.531-2.356,3.771-5.616,6.306-5.604c0-0.462-3.003-1.545-3.46-2.242
		c-3.811-1.85-1.886,3.048-2.509,3.104c-0.006,1.992-3.429,4.844-4.138,6.822c-1.571,4.4-0.297,5.426,1.978,8.781
		c-0.389,2.282-0.173,5.812-0.173,8.277c0,1.916,1.622,3.648,1.536,5.516c0.193,0.723-1.742,1.415-1.742,2.318
		c0,0.018,0,0.089,0,0.101C3.679,58.029,10.612,45.709,9.481,46.258z M5.396,24.766c0.072-0.313,0.202-0.625,0.293-0.9
		C5.598,24.14,5.471,24.452,5.396,24.766c-0.037,0.158-0.059,0.313-0.056,0.467C5.337,25.079,5.358,24.923,5.396,24.766z"/>
	<path fill="#FFFFFF" d="M2.681,51.091c-0.004-0.031-0.004-0.061-0.006-0.089C2.677,51.081,2.681,51.099,2.681,51.091z"/>
	<path fill="#FFFFFF" d="M25.545,30.431c-0.046-0.039-0.09-0.079-0.138-0.12C25.382,30.312,25.618,30.495,25.545,30.431z"/>
	<path fill="#FFFFFF" d="M34.653,76c-0.517-0.435-1.037-0.865-1.558-1.295C32.516,74.784,34.67,76.002,34.653,76z"/>
	<path fill="#FFFFFF" d="M1.033,36.948c-0.419,0.787,0.136,1.94,0.346,2.674c0.043,0.005,1.296-2.701,1.296-3.104
		C2.189,36.454,0.981,35.752,1.033,36.948z"/>
	<path fill="#FFFFFF" d="M10.632,15.807c0.158,0.074,0.316,0.106,0.474,0.091c0.763,0.151,1.413,0.309,1.879,0.427
		c0.48,0.252,1.091,0.333,1.877-0.066c1.729,0.431,5.92-1.288,3.975-3.62c1.896,1.314,6.376,1.947,6.829-1.294
		c0.384-1.012-0.69-1.707-0.69-2.498c3.252-0.99,5.729,1.542,8.729,1.637c0-2.95,0.607-3.95,1.296-3.954
		c0.688,0.004,1.295,1.003,1.295,3.954c2.999-0.095,5.479-2.627,8.73-1.637c0,0.792-1.075,1.486-0.69,2.498
		c0.452,3.242,4.934,2.608,6.83,1.294c-1.947,2.332,2.243,4.05,3.973,3.62c0.785,0.399,1.397,0.318,1.876,0.066
		c0.468-0.119,1.117-0.276,1.881-0.427c0.157,0.016,0.315-0.017,0.474-0.091c2.421-0.446,5.673-0.75,7.504,0.287l0.019-0.004
		c-0.538-0.857-1.397-1.231-2.335-1.377c-0.983-0.312-1.94-0.298-2.943-0.181l-0.398,0.054c-0.326,0.047-0.657,0.1-0.998,0.157
		l-0.233,0.037c-1.058,0.173-2.203,0.338-3.501,0.292c-5.691-0.2-3.181-5.011-0.221-2.603c-2.307-3.197-8.114,1.387-6.739-2.587
		c-0.239-0.247,3.425,0.066,3.628,0.088c-0.154-1.593-4.486-0.832-5.185-1.208c0-2.237,2.842-2.155,4.321-2.155
		c-0.43-3.09-8.57,1.403-9.767,1.119c-5.062,0-0.292-4.481,2.679-4.481C41.496,1.046,36.634,7.345,35,1
		c-1.635,6.345-6.497,0.046-10.198,2.243c2.97,0,7.74,4.481,2.678,4.481c-1.196,0.284-9.336-4.209-9.767-1.119
		c1.48,0,4.321-0.082,4.321,2.155c-0.699,0.376-5.031-0.385-5.185,1.208c0.202-0.021,3.868-0.335,3.628-0.088
		c1.375,3.974-4.434-0.61-6.738,2.587c2.958-2.409,5.471,2.403-0.222,2.603c-1.298,0.046-2.441-0.119-3.5-0.292l-0.233-0.037
		c-0.342-0.057-0.673-0.11-0.998-0.157l-0.398-0.054c-1.004-0.117-1.96-0.13-2.942,0.181c-0.938,0.146-1.799,0.52-2.336,1.377
		l0.018,0.004C4.959,15.057,8.208,15.361,10.632,15.807z"/>
	<path fill="#FFFFFF" d="M33.096,74.705C33.096,74.705,32.996,74.721,33.096,74.705L33.096,74.705z"/>
	<path fill="#FFFFFF" d="M1.033,36.948C1.024,36.798,0.801,37.384,1.033,36.948L1.033,36.948z"/>
	<path fill="#FFFFFF" d="M24.887,64.705c-0.65-0.082,0.522-2.996-1.037-2.756c-0.612,0.814-1.336,3.963-2.418,3.963
		c0.027,0,0,0.115,0,0c0,1.578,0.442,2.52,2.042,2.987c-2.897-0.982,2.232-3.972,3.4,1.323c0.172,0.167,1.406,3.858,1.678,4.932
		c0.709-0.359,2.897-0.902,3.913-0.865C29.506,71.643,25.696,68.719,24.887,64.705z"/>
	<path fill="#FFFFFF" d="M23.159,38.242c-0.895,1.486-0.416,2.774-0.692,4.225c1.103,3.143,5.771,9.158,9.766,6.466
		c1.586-4.069,2.016-4.606-0.848-8.464c-3.502-4.716,0.417-7.605,0.417-12.571c-0.891-1.645-7.693,3.693-7.693-3.274
		c-4.049-4.11,6.914,1.105,7.434,1.292c1.49-3.041-9.909-9.779-10.545-2.33c-2.044,0,1.109,6.727,4.41,6.727
		c0.076,0.064,0.12,0.102,0.138,0.12C29.962,34.265,24.486,35.238,23.159,38.242z"/>
	<path fill="#FFFFFF" d="M35,42.664c1.216-0.219,2.991-2.79,3.544-3.733c0-3.661-0.356-0.703-3.026-2.613
		c0.229-1.216,2.006-0.545,2.771-0.545h0.036h0.077c0.019-1.995,0.037-0.667,0.055-0.696c-0.002,0.002-0.007-0.306-0.007-0.302
		l-0.123-0.773c-0.368-1.516-1.418-5.4-2.031-4.904c0.177,2.055,1.786,3.77-0.863,4.527c-0.153,0.077-0.296,0.117-0.432,0.167
		c-0.136-0.05-0.279-0.12-0.432-0.194c-2.65-0.761-1.04-2.52-0.864-4.574c-0.613-0.493-1.662,3.305-2.03,4.823l-0.124,0.612
		c0,0-0.005,0.672-0.008,0.666c0.02,0.027,0.038,0.647,0.057,0.647h0.077h0.035c0.765,0,2.542-0.67,2.772,0.545
		c-2.672,1.911-3.029-0.76-3.029,2.9C32.009,40.164,33.784,42.445,35,42.664z"/>
	<path fill="#FFFFFF" d="M29.813,52.293C29.811,52.173,29.604,53.004,29.813,52.293L29.813,52.293z"/>
</g>
<g>
	<path fill="#DBDBDB" d="M37.073,73.705c0.148-0.138,0.305-0.277,0.462-0.416C37.105,73.307,36.888,73.426,37.073,73.705z"/>
	<path fill="#DBDBDB" d="M64.731,55.518C64.859,55.791,64.731,55.488,64.731,55.518L64.731,55.518z"/>
	<path fill="#DBDBDB" d="M61.104,52.521c2.857-2.266-0.155,0.604-0.865-1.573c0.005-1.308-0.217-2.347-0.434-3.622
		c-0.091-2.068-4.946-4.025-4.84-1.551c-0.328,2.475,3.068,0.119,1.21-0.43c5.119-1.373-1.229,13.229-1.311,13.396
		c-3.384,6.946-6.131-4.12-10.529-0.123c-0.405,1.725,0.788,1.725,1.21,0.26c4.984,0.324,4.435,5.875,4.665,9.482
		c0.461-1.67,4.303-12.172,7.521-7.931c-0.028,0.023,1.295-6.909,1.295-7.327c3.325-1.162,0.77,2.561,0.519,3.018
		c0.516,0,1.226-0.293,1.729-0.26c2.284-1.611,3.342,2.393,1.9,2.674c0.879-3.183-4.312-0.185-0.603,0.775
		c1.903,0,2.93-2.115,2.159-3.793C64.731,54.525,60.232,53.213,61.104,52.521z"/>
	<path fill="#DBDBDB" d="M66.679,49.99c0,0.004,0,0.006,0,0.012C66.679,49.986,66.679,49.982,66.679,49.99z"/>
	<path fill="#DBDBDB" d="M64.755,47.672c-0.084-1.867,1.2-3.6,1.2-5.516c0-2.466,0.294-5.996-0.097-8.277
		c2.273-3.354,3.591-4.38,2.021-8.781c-0.71-1.978-4.11-4.83-4.116-6.822c-0.623-0.056,1.314-4.953-2.498-3.104
		c-0.458,0.697-3.453,1.78-3.453,2.242c2.536-0.012,5.783,3.249,6.312,5.604c2.098,4.65-5.114,2.06-7.002,3.705
		c7.255,2.976,3.334,7.632,6.66,12.415c-0.121,0.509,1.117,4.033-0.262,3.792c-0.692,0.46-3.029-1.107-3.288-1.207
		c-2.815-1.072-3.807,0.768-5.873,0.777c1.762,0,5.948,0.061,6.337,2.756c-1.129-0.549,5.982,11.771,5.982,4.833
		c0-0.012,0-0.083,0-0.101C66.679,49.087,64.562,48.395,64.755,47.672z M64.604,23.766c-0.074-0.313-0.202-0.625-0.293-0.9
		C64.401,23.14,64.529,23.452,64.604,23.766c0.037,0.158,0.058,0.313,0.056,0.467C64.661,24.079,64.641,23.923,64.604,23.766z"/>
	<path fill="#DBDBDB" d="M67.325,50.002c-0.002,0.028-0.002,0.058-0.006,0.089C67.319,50.099,67.323,50.081,67.325,50.002z"/>
	<path fill="#DBDBDB" d="M44.593,29.312c-0.047,0.041-0.092,0.081-0.139,0.12C44.382,29.495,44.617,29.312,44.593,29.312z"/>
	<path fill="#DBDBDB" d="M36.903,73.705c-0.521,0.43-1.04,0.86-1.557,1.295C35.33,75.002,37.484,73.784,36.903,73.705z"/>
	<path fill="#DBDBDB" d="M68.967,35.948c0.052-1.196-1.157-0.495-1.642-0.43c0,0.403,1.253,3.109,1.295,3.104
		C68.831,37.889,69.387,36.735,68.967,35.948z"/>
	<path fill="#DBDBDB" d="M36.903,73.705C37.004,73.721,36.903,73.705,36.903,73.705L36.903,73.705z"/>
	<path fill="#DBDBDB" d="M68.967,35.948C69.199,36.384,68.973,35.798,68.967,35.948L68.967,35.948z"/>
	<path fill="#DBDBDB" d="M46.15,60.949c-1.56-0.24-0.388,2.674-1.037,2.756c-0.811,4.014-4.62,6.938-7.578,9.584
		c1.015-0.037,3.203,0.506,3.912,0.865c0.27-1.073,1.507-4.765,1.677-4.932c1.171-5.295,6.297-2.306,3.402-1.323
		c1.599-0.468,2.042-1.409,2.042-2.987c0,0.115-0.027,0,0,0C47.484,64.912,46.763,61.764,46.15,60.949z"/>
	<path fill="#DBDBDB" d="M49.003,22.585c-0.635-7.449-12.036-0.711-10.547,2.33c0.521-0.186,11.484-5.402,7.436-1.292
		c0,6.968-6.803,1.629-7.693,3.274c0,4.965,3.918,7.854,0.416,12.57c-2.863,3.858-2.435,4.395-0.848,8.464
		c3.996,2.692,8.664-3.323,9.767-6.466c-0.277-1.451,0.202-2.739-0.693-4.225c-1.327-3.003-6.803-3.977-2.386-7.811
		c0.019-0.018,0.062-0.055,0.139-0.12C47.894,29.312,51.046,22.585,49.003,22.585z"/>
	<path fill="#DBDBDB" d="M40.187,51.293C40.396,52.004,40.19,51.173,40.187,51.293L40.187,51.293z"/>
	<path fill="#DBDBDB" d="M37.767,58.619c-0.111-2.355,3.084-5.074,2.42-7.326c0.031-1.101-2.394-0.783-2.94-0.691
		c-2.315,0.014-1.218-1.528-2.246-2.451c-1.029,0.923,0.069,2.465-2.247,2.451c-0.546-0.092-2.973-0.409-2.939,0.691
		c-0.665,2.252,2.531,4.971,2.419,7.326c1.542-1.159,2.347-1.822,2.768,0.617C35.421,56.797,36.226,57.46,37.767,58.619z"/>
	<path fill="#DBDBDB" d="M32.465,73.289c0.157,0.139,0.309,0.278,0.461,0.416C33.112,73.426,32.894,73.307,32.465,73.289z"/>
	<path fill="#DBDBDB" d="M5.268,55.518C5.268,55.488,5.14,55.791,5.268,55.518L5.268,55.518z"/>
	<path fill="#DBDBDB" d="M24.455,58.879c0.421,1.465,1.614,1.465,1.21-0.26c-4.398-3.997-7.146,7.069-10.529,0.123
		c-0.082-0.167-6.429-14.77-1.311-13.396c-1.858,0.549,1.537,2.904,1.21,0.43c0.106-2.475-4.75-0.518-4.841,1.551
		c-0.216,1.275-0.438,2.314-0.433,3.622c-0.712,2.177-3.723-0.692-0.869,1.573c0.876,0.691-3.625,2.004-3.625,2.996
		c-0.77,1.678,0.257,3.793,2.16,3.793c3.71-0.96-1.483-3.958-0.603-0.775c-1.442-0.281-0.385-4.285,1.9-2.674
		c0.504-0.033,1.213,0.26,1.729,0.26c-0.251-0.457-2.81-4.18,0.518-3.018c0,0.418,1.321,7.351,1.295,7.327
		c3.22-4.241,7.062,6.261,7.521,7.931C20.02,64.754,19.472,59.203,24.455,58.879z"/>
	<path fill="#DBDBDB" d="M34.05,16.897c0.312-1.346-1.721-2.09-1.729-1.808c0,3.222-3.144,6.59,2.311,7.71
		c0.122,0.025,0.245,0.041,0.368,0.055c0.122-0.014,0.245-0.029,0.368-0.055c5.454-1.12,2.312-4.488,2.312-7.71
		c-0.009-0.283-2.042,0.461-1.731,1.808c0.006,0.409,0.347,1.222,0.347,2.071c0.405,1.018-0.438,1.438-1.295,1.486
		c-0.859-0.049-1.702-0.469-1.296-1.486C33.704,18.119,34.046,17.306,34.05,16.897z"/>
	<path fill="#DBDBDB" d="M1.679,50.002c0-0.006,0-0.008,0-0.012C1.679,49.982,1.679,49.986,1.679,50.002z"/>
	<path fill="#DBDBDB" d="M9.481,45.258c0.389-2.695,4.646-2.756,6.406-2.756c-2.064-0.01-3.18-1.85-5.994-0.777
		c-0.259,0.1-2.659,1.667-3.354,1.207c-1.377,0.24-0.17-3.283-0.291-3.792c3.325-4.782-0.613-9.439,6.639-12.415
		c-1.881-1.645-9.104,0.945-7.007-3.705c0.531-2.356,3.771-5.616,6.306-5.604c0-0.462-3.003-1.545-3.46-2.242
		c-3.811-1.85-1.886,3.048-2.509,3.104c-0.006,1.992-3.429,4.844-4.138,6.822c-1.571,4.4-0.297,5.426,1.978,8.781
		c-0.389,2.282-0.173,5.812-0.173,8.277c0,1.916,1.622,3.648,1.536,5.516c0.193,0.723-1.742,1.415-1.742,2.318
		c0,0.018,0,0.089,0,0.101C3.679,57.029,10.612,44.709,9.481,45.258z M5.396,23.766c0.072-0.313,0.202-0.625,0.293-0.9
		C5.598,23.14,5.471,23.452,5.396,23.766c-0.037,0.158-0.059,0.313-0.056,0.467C5.337,24.079,5.358,23.923,5.396,23.766z"/>
	<path fill="#DBDBDB" d="M2.681,50.091c-0.004-0.031-0.004-0.061-0.006-0.089C2.677,50.081,2.681,50.099,2.681,50.091z"/>
	<path fill="#DBDBDB" d="M25.545,29.431c-0.046-0.039-0.09-0.079-0.138-0.12C25.382,29.312,25.618,29.495,25.545,29.431z"/>
	<path fill="#DBDBDB" d="M34.653,75c-0.517-0.435-1.037-0.865-1.558-1.295C32.516,73.784,34.67,75.002,34.653,75z"/>
	<path fill="#DBDBDB" d="M1.033,35.948c-0.419,0.787,0.136,1.94,0.346,2.674c0.043,0.005,1.296-2.701,1.296-3.104
		C2.189,35.454,0.981,34.752,1.033,35.948z"/>
	<path fill="#DBDBDB" d="M10.632,14.807c0.158,0.074,0.316,0.106,0.474,0.091c0.763,0.151,1.413,0.309,1.879,0.427
		c0.48,0.252,1.091,0.333,1.877-0.066c1.729,0.431,5.92-1.288,3.975-3.62c1.896,1.314,6.376,1.947,6.829-1.294
		c0.384-1.012-0.69-1.707-0.69-2.498c3.252-0.99,5.729,1.542,8.729,1.637c0-2.95,0.607-3.95,1.296-3.954
		c0.688,0.004,1.295,1.003,1.295,3.954c2.999-0.095,5.479-2.627,8.73-1.637c0,0.792-1.075,1.486-0.69,2.498
		c0.452,3.242,4.934,2.608,6.83,1.294c-1.947,2.332,2.243,4.05,3.973,3.62c0.785,0.399,1.397,0.318,1.876,0.066
		c0.468-0.119,1.117-0.276,1.881-0.427c0.157,0.016,0.315-0.017,0.474-0.091c2.421-0.446,5.673-0.75,7.504,0.287l0.019-0.004
		c-0.538-0.857-1.397-1.231-2.335-1.377c-0.983-0.312-1.94-0.298-2.943-0.181l-0.398,0.054c-0.326,0.047-0.657,0.1-0.998,0.157
		l-0.233,0.037c-1.058,0.173-2.203,0.338-3.501,0.292c-5.691-0.2-3.181-5.011-0.221-2.603c-2.307-3.197-8.114,1.387-6.739-2.587
		c-0.239-0.247,3.425,0.066,3.628,0.088c-0.154-1.593-4.486-0.832-5.185-1.208c0-2.237,2.842-2.155,4.321-2.155
		c-0.43-3.09-8.57,1.403-9.767,1.119c-5.062,0-0.292-4.481,2.679-4.481C41.496,0.046,36.634,6.345,35,0
		c-1.635,6.345-6.497,0.046-10.198,2.243c2.97,0,7.74,4.481,2.678,4.481c-1.196,0.284-9.336-4.209-9.767-1.119
		c1.48,0,4.321-0.082,4.321,2.155c-0.699,0.376-5.031-0.385-5.185,1.208c0.202-0.021,3.868-0.335,3.628-0.088
		c1.375,3.974-4.434-0.61-6.738,2.587c2.958-2.409,5.471,2.403-0.222,2.603c-1.298,0.046-2.441-0.119-3.5-0.292l-0.233-0.037
		c-0.342-0.057-0.673-0.11-0.998-0.157l-0.398-0.054c-1.004-0.117-1.96-0.13-2.942,0.181c-0.938,0.146-1.799,0.52-2.336,1.377
		l0.018,0.004C4.959,14.057,8.208,14.361,10.632,14.807z"/>
	<path fill="#DBDBDB" d="M33.096,73.705C33.096,73.705,32.996,73.721,33.096,73.705L33.096,73.705z"/>
	<path fill="#DBDBDB" d="M1.033,35.948C1.024,35.798,0.801,36.384,1.033,35.948L1.033,35.948z"/>
	<path fill="#DBDBDB" d="M24.887,63.705c-0.65-0.082,0.522-2.996-1.037-2.756c-0.612,0.814-1.336,3.963-2.418,3.963
		c0.027,0,0,0.115,0,0c0,1.578,0.442,2.52,2.042,2.987c-2.897-0.982,2.232-3.972,3.4,1.323c0.172,0.167,1.406,3.858,1.678,4.932
		c0.709-0.359,2.897-0.902,3.913-0.865C29.506,70.643,25.696,67.719,24.887,63.705z"/>
	<path fill="#DBDBDB" d="M23.159,37.242c-0.895,1.486-0.416,2.774-0.692,4.225c1.103,3.143,5.771,9.158,9.766,6.466
		c1.586-4.069,2.016-4.606-0.848-8.464c-3.502-4.716,0.417-7.605,0.417-12.57c-0.891-1.645-7.693,3.693-7.693-3.274
		c-4.049-4.11,6.914,1.105,7.434,1.292c1.49-3.041-9.909-9.779-10.545-2.33c-2.044,0,1.109,6.727,4.41,6.727
		c0.076,0.064,0.12,0.102,0.138,0.12C29.962,33.265,24.486,34.238,23.159,37.242z"/>
	<path fill="#DBDBDB" d="M35,41.664c1.216-0.219,2.991-2.79,3.544-3.733c0-3.661-0.356-0.703-3.026-2.613
		c0.229-1.216,2.006-0.545,2.771-0.545h0.036h0.077c0.019-1.995,0.037-0.667,0.055-0.696c-0.002,0.002-0.007-0.306-0.007-0.302
		l-0.123-0.773c-0.368-1.516-1.418-5.4-2.031-4.904c0.177,2.055,1.786,3.77-0.863,4.527c-0.153,0.077-0.296,0.117-0.432,0.167
		c-0.136-0.05-0.279-0.12-0.432-0.194c-2.65-0.761-1.04-2.52-0.864-4.574c-0.613-0.493-1.662,3.305-2.03,4.823l-0.124,0.612
		c0,0-0.005,0.672-0.008,0.666c0.02,0.027,0.038,0.647,0.057,0.647h0.077h0.035c0.765,0,2.542-0.67,2.772,0.545
		c-2.672,1.911-3.029-0.76-3.029,2.9C32.009,39.164,33.784,41.445,35,41.664z"/>
	<path fill="#DBDBDB" d="M29.813,51.293C29.811,51.173,29.604,52.004,29.813,51.293L29.813,51.293z"/>
</g>
<path fill="#FFFFFF" fill-opacity="0.5" d="M26.412,92.219c-20.791,7.37-10.619,27.324-6.174,30.994
	c2.351,1.941,4.29,17.751,4.703,19.059c0.166,1.746-2.046,10.714-3.162,11.909c-3.69-2.788-9.516-14.797-9.457-18.444
	c5.44,4.967,8.831,1.586,5.169-7.315c-3.771-9.168-7.566-5.291-9.021-2.255C4.562,124.45,0.385,115.44,0,111.425
	c2.53,1.705,4.841,5.17,10.231,4.62c-0.056-10.065-9.46-10.34-9.46-11.11c0-2.266,8.003-11.798,8.003-11.798
	c0.023-17.392,0.792-5.181,7.177-6.133C18.097,84.35,26.426,78,26.426,78s9.158,6.312,11.303,8.966
	c5.775-0.22,7.206-9.075,7.178,6.132c0,0,8.002,9.818,8.002,11.138c0,0.771-9.074,2.477-9.129,12.541
	c5.389,0.551,8.689-4.016,11.22-5.721c-0.385,4.016-6.601,15.731-8.525,17.271c-2.64-5.72-6.105-9.844-10.835,3.19
	c-5.582,15.384,1.704,16.555,4.07,16.446c-8.086,8.168-6.325,20.682-9.186,23.486c-1.045-4.867-1.155-44.553,2.916-48.403
	C37.626,119.085,47.205,99.589,26.412,92.219z"/>
<path fill="#FFFFFF" fill-opacity="0.5" d="M26.6,121.233c0,0-0.587-3.741-3.227-8.141c-2.065-3.442-3.498-3.902-2.88-4.812
	c2.405-3.549,2.842-2.855,5.729-6.82l0.755-0.358c0,0,5.037,4.648,5.943,7.123c0.386,1.053-1.411,3.356-2.72,5.721
	c-1.458,2.634-1.947,5.191-3.077,6.768L26.6,121.233z"/>
<path fill="#DBDBDB" d="M26.412,91.219c-20.791,7.37-10.619,27.324-6.174,30.994c2.351,1.941,4.29,17.751,4.703,19.059
	c0.166,1.746-2.046,10.714-3.162,11.909c-3.69-2.788-9.516-14.797-9.457-18.444c5.44,4.967,8.831,1.586,5.169-7.315
	c-3.771-9.168-7.566-5.291-9.021-2.255C4.562,123.45,0.385,114.44,0,110.425c2.53,1.705,4.841,5.17,10.231,4.62
	c-0.056-10.065-9.46-10.34-9.46-11.11c0-2.266,8.003-11.798,8.003-11.798c0.023-17.392,0.792-5.181,7.177-6.133
	C18.097,83.35,26.426,77,26.426,77s9.158,6.312,11.303,8.966c5.775-0.22,7.206-9.075,7.178,6.132c0,0,8.002,9.818,8.002,11.138
	c0,0.771-9.074,2.477-9.129,12.541c5.389,0.551,8.689-4.016,11.22-5.721c-0.385,4.016-6.601,15.731-8.525,17.271
	c-2.64-5.72-6.105-9.844-10.835,3.19c-5.582,15.384,1.704,16.555,4.07,16.446c-8.086,8.168-6.325,20.682-9.186,23.486
	c-1.045-4.867-1.155-44.553,2.916-48.403C37.626,118.085,47.205,98.589,26.412,91.219z"/>
<path fill="#DBDBDB" d="M26.6,120.233c0,0-0.587-3.741-3.227-8.141c-2.065-3.442-3.498-3.902-2.88-4.812
	c2.405-3.549,2.842-2.855,5.729-6.82l0.755-0.358c0,0,5.037,4.648,5.943,7.123c0.386,1.053-1.411,3.356-2.72,5.721
	c-1.458,2.634-1.947,5.191-3.077,6.768L26.6,120.233z"/>
</svg>
